<svg xmlns="http://www.w3.org/2000/svg" viewBox="0 0 512 512">
  <title>MangaMeeya Rust</title>
  <defs>
    <linearGradient id="g" x1="0" y1="0" x2="1" y2="1">
      <stop stop-color="#e9a83b"/><stop offset="1" stop-color="#c55d28"/>
    </linearGradient>
  </defs>
  <rect width="512" height="512" rx="88" fill="#202124"/>
  <path d="M72 105c76-21 138-7 184 38 46-45 108-59 184-38v301c-78-18-138-4-184 40-46-44-106-58-184-40z" fill="url(#g)"/>
  <path d="M256 143v303M103 145c58-12 99-2 127 24M409 145c-58-12-99-2-127 24" fill="none" stroke="#fff4d6" stroke-width="18" stroke-linecap="round"/>
  <path d="M116 210h91M116 261h91M116 312h91M305 210h91M305 261h91M305 312h91" stroke="#fff4d6" stroke-width="14" stroke-linecap="round"/>
</svg>
